<?xml version="1.0" standalone="no"?>
<!DOCTYPE svg PUBLIC "-//W3C//DTD SVG 20010904//EN"
 "http://www.w3.org/TR/2001/REC-SVG-20010904/DTD/svg10.dtd">
<svg version="1.0" xmlns="http://www.w3.org/2000/svg"
 width="1024.000000pt" height="1024.000000pt" viewBox="0 0 1024.000000 1024.000000"
 preserveAspectRatio="xMidYMid meet">

<g transform="translate(0.000000,1024.000000) scale(0.100000,-0.100000)"
fill="#000000" stroke="none">
<path d="M1649 8156 c-73 -19 -143 -77 -176 -144 -49 -100 -45 -144 37 -467
40 -154 78 -305 85 -335 7 -30 97 -388 200 -795 103 -407 193 -765 200 -795 7
-30 42 -170 78 -310 36 -140 99 -388 141 -550 114 -450 190 -747 240 -940 24
-96 70 -274 101 -395 80 -311 142 -444 274 -587 97 -105 195 -179 323 -241
388 -192 871 -181 1292 30 85 42 215 126 551 356 77 52 281 191 453 307 273
184 316 209 330 198 23 -18 322 -278 462 -402 220 -195 475 -412 523 -445 119
-81 299 -141 427 -141 128 0 296 56 417 138 81 55 198 183 257 280 98 164 80
99 451 1597 113 457 214 864 224 905 11 41 29 111 40 155 11 44 61 247 111
450 50 204 109 442 132 530 22 88 44 180 49 205 4 25 15 67 24 94 16 52 19 84
5 51 -7 -17 -9 -17 -9 -3 -1 24 -42 60 -63 55 -9 -3 -25 4 -34 14 -14 15 -20
17 -27 7 -7 -10 -10 -10 -14 0 -8 20 -26 14 -20 -7 6 -22 -13 -33 -34 -20 -8
5 -22 6 -32 3 -10 -3 -24 0 -32 6 -10 8 -19 8 -34 1 -27 -15 -31 -14 -31 9 0
11 -4 20 -10 20 -5 0 -10 -10 -10 -22 -1 -22 -1 -22 -15 -4 -8 10 -13 22 -11
25 2 3 -12 7 -32 8 -19 1 -39 8 -44 15 -8 11 -10 11 -15 0 -4 -10 -8 -10 -17
2 -6 9 -22 16 -36 16 -89 0 -115 2 -118 11 -5 14 -32 11 -32 -4 0 -9 -9 -12
-29 -9 -22 3 -28 8 -24 21 5 15 4 15 -12 -1 -16 -15 -19 -15 -38 3 -18 17 -22
17 -30 4 -7 -13 -13 -10 -34 15 -24 29 -26 29 -38 13 -13 -17 -14 -17 -34 1
-12 11 -21 14 -21 8 0 -7 -4 -12 -10 -12 -5 0 -10 9 -10 21 0 14 -5 19 -14 16
-9 -4 -17 2 -21 13 -7 21 -55 36 -65 20 -4 -6 -23 -12 -43 -13 -20 -2 -39 -6
-43 -9 -3 -4 -20 -2 -37 3 -22 6 -33 5 -39 -4 -5 -8 -8 -4 -8 11 0 15 -6 22
-19 22 -11 0 -21 6 -24 13 -3 8 -10 6 -22 -8 -9 -11 -14 -15 -11 -8 4 7 -3 13
-16 15 -13 2 -22 9 -20 17 2 11 -3 10 -22 -2 -23 -16 -25 -16 -31 3 -7 22 -35
28 -35 8 0 -10 -2 -10 -9 0 -9 15 -92 14 -104 -2 -4 -6 -5 7 -3 29 l5 40 -13
-45 c-7 -25 -23 -88 -35 -140 -12 -52 -33 -140 -46 -195 -13 -55 -35 -147 -49
-205 -13 -58 -43 -184 -65 -280 -57 -241 -90 -385 -88 -386 21 -7 298 -226
342 -269 148 -146 217 -304 216 -499 -1 -150 -26 -257 -93 -390 -85 -169 -203
-288 -468 -468 -190 -129 -763 -513 -780 -523 -45 -25 82 76 215 170 69 49 84
65 84 87 1 18 8 29 21 33 14 5 20 16 21 38 0 18 3 26 6 19 4 -10 8 -10 18 -2
8 6 11 18 8 26 -3 8 -1 14 5 14 14 0 20 70 8 84 -16 16 -19 56 -5 56 8 0 8 4
-1 15 -10 12 -10 15 0 15 9 0 10 4 2 13 -16 19 -8 68 13 84 18 12 18 13 -3 13
-29 0 -28 16 1 24 22 6 22 7 2 18 -11 6 -21 12 -23 14 -2 1 1 11 7 23 7 13 8
22 1 26 -7 4 -6 13 1 26 5 11 8 25 5 32 -2 7 -5 5 -5 -4 -1 -9 -8 -19 -15 -22
-10 -4 -13 -1 -10 7 3 8 1 17 -5 21 -6 3 -11 15 -11 27 0 17 3 18 15 8 16 -14
35 -6 35 16 0 8 -10 14 -25 14 -14 0 -25 4 -25 10 0 5 7 7 15 4 20 -8 30 22
13 40 -29 34 -34 42 -30 54 2 6 11 12 20 12 13 0 17 10 17 43 0 23 4 45 8 48
5 3 1 13 -8 23 -22 21 -23 21 118 -19 175 -49 243 -59 381 -52 134 6 212 28
296 85 71 48 82 63 67 95 -6 15 -18 27 -24 27 -7 0 -13 6 -13 14 0 10 -9 14
-27 12 -16 -1 -27 -8 -26 -14 4 -19 -7 -14 -28 11 -10 12 -18 16 -19 9 0 -9
-11 -10 -37 -6 -65 10 -88 10 -95 -1 -5 -6 -8 -3 -8 7 0 13 -8 17 -30 15 -27
-2 -35 -12 -31 -39 0 -5 -4 -8 -9 -8 -6 0 -10 6 -10 14 0 7 -9 16 -20 19 -11
3 -20 2 -20 -2 0 -12 -33 -10 -49 3 -11 8 -13 8 -7 -1 4 -8 2 -13 -4 -13 -7 0
-10 -7 -6 -15 3 -9 0 -15 -10 -15 -9 0 -18 9 -21 21 -4 14 -11 18 -22 13 -40
-16 -50 -15 -61 6 -9 18 -14 19 -27 9 -13 -11 -14 -9 -10 18 3 22 1 33 -9 37
-8 3 -14 -1 -14 -11 0 -13 -3 -13 -16 -2 -8 7 -14 20 -11 28 3 12 -4 16 -29
17 -18 0 -31 -3 -28 -7 2 -4 -5 -5 -16 -2 -11 3 -20 0 -20 -6 0 -6 -7 -11 -15
-11 -8 0 -15 4 -15 9 0 5 7 11 15 15 8 3 15 13 15 22 0 10 -5 14 -15 10 -8 -3
-14 0 -12 6 1 7 -5 12 -13 13 -8 0 -15 7 -15 15 0 8 6 14 13 13 6 -2 12 2 12
7 0 6 -4 10 -10 10 -5 0 -10 9 -10 21 0 11 -4 17 -10 14 -5 -3 -7 0 -5 8 3 7
-3 22 -15 32 -11 10 -20 24 -20 32 0 7 -3 13 -8 13 -4 0 -13 15 -21 33 -8 17
-19 35 -24 38 -5 4 0 10 12 14 26 8 27 22 1 30 -21 7 -28 25 -10 25 6 0 10 7
10 15 0 8 6 15 13 15 7 0 8 3 2 8 -5 4 -11 16 -13 27 -2 11 -10 25 -17 31 -11
8 -11 14 -3 22 8 8 7 13 -5 18 -13 4 -17 19 -17 54 0 27 -5 52 -10 55 -6 4 -8
11 -4 16 3 5 9 7 14 4 14 -9 18 34 4 46 -8 6 -11 16 -8 21 3 5 -1 17 -10 27
-9 10 -16 22 -15 27 4 21 -2 35 -12 28 -8 -4 -9 0 -4 15 3 11 3 26 -2 33 -4 7
-8 19 -9 26 -2 8 -10 22 -20 33 -9 10 -13 19 -8 19 5 0 0 8 -11 16 -14 11 -16
18 -7 21 14 6 16 33 2 33 -5 0 -10 7 -10 15 0 21 -22 65 -30 60 -4 -2 -5 7 -2
21 3 17 -2 31 -17 45 -11 11 -21 26 -21 34 0 8 -8 20 -18 27 -19 15 -46 68
-37 76 7 7 -25 42 -38 42 -6 0 -19 7 -29 17 -10 9 -28 21 -41 27 -12 7 -22 19
-22 28 0 9 -4 20 -9 25 -5 5 -6 2 -1 -7 4 -8 -6 1 -23 20 -17 19 -31 31 -32
26 0 -6 -6 -3 -12 6 -12 14 -186 148 -244 188 -13 8 -67 49 -121 90 -248 188
-445 264 -683 262 -82 0 -146 -6 -185 -17 -33 -9 -77 -20 -99 -26 -64 -16
-207 -91 -267 -139 -123 -99 -198 -224 -279 -465 -102 -301 -303 -941 -416
-1325 -26 -87 -40 -114 -47 -89 -3 8 -14 59 -26 114 -27 123 -65 288 -97 420
-13 55 -35 150 -49 210 -14 61 -32 137 -40 170 -8 33 -26 110 -40 170 -42 181
-126 543 -185 788 -10 45 -40 172 -65 282 -25 110 -54 236 -65 280 -11 44 -31
132 -45 195 -64 283 -79 320 -148 358 -29 16 -85 17 -692 19 -503 1 -671 -1
-706 -11z m3292 -2138 c24 -13 212 -129 417 -258 512 -323 603 -380 609 -380
3 0 34 -19 70 -42 36 -23 72 -43 80 -44 16 -3 31 -19 74 -83 25 -38 29 -55 29
-110 0 -99 -35 -147 -160 -220 -30 -17 -118 -72 -195 -121 -129 -83 -294 -187
-398 -251 -238 -147 -435 -278 -429 -285 4 -5 3 -6 -1 -3 -5 4 -38 -8 -73 -27
-36 -19 -76 -34 -90 -34 -41 0 -103 31 -127 64 l-22 31 0 842 c0 838 0 842 21
870 30 41 82 73 119 73 17 0 51 -10 76 -22z m1786 -790 c-3 -8 -6 -5 -6 6 -1
11 2 17 5 13 3 -3 4 -12 1 -19z m513 -82 c0 -8 -4 -18 -10 -21 -5 -3 -10 3
-10 14 0 12 5 21 10 21 6 0 10 -6 10 -14z m-3666 -840 c-3 -15 -8 -25 -11 -23
-2 3 -1 17 3 31 3 15 8 25 11 23 2 -3 1 -17 -3 -31z m-27 -93 c-8 -26 -22 -75
-31 -108 -30 -105 -108 -346 -112 -342 -4 3 50 190 111 384 21 68 40 121 43
119 2 -3 -3 -26 -11 -53z m-172 -564 c-23 -68 -28 -58 -7 14 9 31 18 52 20 47
2 -5 -4 -33 -13 -61z"/>
<path d="M7400 7420 c-6 -23 -9 -44 -7 -46 2 -3 9 14 15 38 6 23 9 44 7 46 -2
2 -9 -15 -15 -38z"/>
<path d="M7371 7284 c0 -11 3 -14 6 -6 3 7 2 16 -1 19 -3 4 -6 -2 -5 -13z"/>
<path d="M6975 5160 c3 -5 8 -10 11 -10 2 0 4 5 4 10 0 6 -5 10 -11 10 -5 0
-7 -4 -4 -10z"/>
</g>
</svg>
